<svg id="svg" version="1.1" xmlns="http://www.w3.org/2000/svg" xmlns:xlink="http://www.w3.org/1999/xlink" width="400" height="86.17176128093158" viewBox="0, 0, 400,86.17176128093158"><g id="svgg"><path id="path0" d="M94.650 18.269 C 94.412 18.422,94.130 18.785,94.025 19.077 C 93.767 19.791,93.749 68.875,94.007 69.614 C 94.353 70.607,96.760 71.067,97.917 70.360 C 99.021 69.686,99.002 69.962,99.001 54.792 C 99.000 45.819,99.057 41.167,99.167 41.167 C 99.258 41.167,99.333 41.089,99.333 40.993 C 99.333 40.627,100.113 39.785,100.750 39.464 C 101.117 39.279,101.529 39.034,101.667 38.920 C 101.804 38.806,102.442 38.534,103.083 38.315 C 103.725 38.096,104.290 37.864,104.338 37.800 C 104.736 37.273,110.295 37.301,110.472 37.831 C 110.502 37.924,110.626 38.000,110.746 38.000 C 111.448 38.000,114.000 39.749,114.000 40.230 C 114.000 40.323,114.172 40.590,114.383 40.824 C 115.430 41.989,115.500 42.960,115.500 56.333 C 115.500 67.930,115.510 68.290,115.833 68.961 C 116.017 69.340,116.167 69.718,116.167 69.799 C 116.167 70.047,116.721 70.467,117.208 70.588 C 117.460 70.651,117.667 70.770,117.667 70.851 C 117.667 70.933,117.929 71.000,118.250 71.000 C 118.571 71.000,118.833 70.934,118.833 70.854 C 118.833 70.774,119.050 70.665,119.315 70.612 C 120.969 70.281,120.943 70.526,120.919 55.500 C 120.899 43.227,120.788 40.500,120.310 40.500 C 120.231 40.500,120.167 40.402,120.167 40.282 C 120.167 39.993,119.368 37.963,119.208 37.843 C 119.020 37.703,118.335 36.699,118.324 36.548 C 118.311 36.372,116.495 34.854,115.894 34.517 C 115.631 34.370,115.378 34.198,115.330 34.136 C 115.200 33.964,113.813 33.392,113.202 33.258 C 112.907 33.193,112.667 33.080,112.667 33.007 C 112.667 32.388,105.042 32.380,104.250 32.998 C 104.158 33.070,103.821 33.184,103.500 33.252 C 102.659 33.431,100.978 33.979,100.765 34.144 C 100.665 34.222,100.358 34.363,100.083 34.459 C 99.808 34.554,99.452 34.686,99.292 34.751 C 99.016 34.862,99.000 34.448,99.000 27.412 C 99.000 19.654,98.946 18.972,98.290 18.378 C 97.820 17.952,95.264 17.876,94.650 18.269 M188.701 18.175 C 187.797 18.537,187.833 17.450,187.833 44.333 C 187.833 71.655,187.774 70.106,188.840 70.477 C 189.774 70.803,191.389 70.719,191.898 70.319 C 192.969 69.476,192.908 70.324,193.000 54.892 C 193.082 41.171,193.091 40.860,193.417 40.478 C 193.888 39.928,194.173 39.704,194.792 39.397 C 195.090 39.249,195.333 39.068,195.333 38.995 C 195.333 38.921,195.952 38.657,196.708 38.408 C 197.465 38.159,198.169 37.888,198.273 37.806 C 199.028 37.212,203.993 37.303,204.612 37.922 C 204.747 38.057,204.983 38.167,205.137 38.167 C 205.496 38.168,206.391 38.715,207.060 39.341 C 207.348 39.611,207.634 39.832,207.696 39.833 C 207.757 39.833,208.020 40.265,208.279 40.792 C 208.538 41.319,208.817 41.798,208.898 41.857 C 209.402 42.223,209.488 44.325,209.494 56.450 C 209.500 68.470,209.542 69.500,210.027 69.500 C 210.104 69.500,210.167 69.607,210.167 69.738 C 210.167 70.049,210.958 70.667,211.356 70.667 C 211.527 70.667,211.667 70.742,211.667 70.833 C 211.667 71.040,212.612 71.056,212.739 70.852 C 212.789 70.770,213.037 70.652,213.290 70.589 C 213.877 70.442,214.282 70.074,214.604 69.396 C 214.951 68.665,215.051 42.823,214.708 42.708 C 214.594 42.670,214.500 42.432,214.500 42.179 C 214.500 41.386,213.845 39.117,213.438 38.502 C 213.223 38.178,212.994 37.743,212.928 37.535 C 212.862 37.328,212.626 37.039,212.404 36.893 C 212.182 36.747,212.000 36.528,212.000 36.405 C 212.000 36.283,211.806 36.047,211.569 35.883 C 211.333 35.718,210.945 35.377,210.708 35.125 C 210.472 34.873,210.192 34.667,210.087 34.667 C 209.982 34.667,209.745 34.526,209.561 34.354 C 209.162 33.983,207.925 33.416,207.142 33.246 C 206.835 33.179,206.544 33.064,206.496 32.989 C 206.048 32.289,199.470 32.368,197.891 33.092 C 197.603 33.225,197.261 33.333,197.132 33.333 C 196.823 33.333,194.800 34.008,194.569 34.188 C 194.469 34.265,194.076 34.439,193.694 34.574 L 193.000 34.819 193.000 27.329 C 193.000 19.102,192.973 18.851,192.011 18.283 C 191.481 17.970,189.383 17.901,188.701 18.175 M307.250 18.514 C 306.237 19.044,306.258 18.880,306.167 27.200 C 306.104 32.893,306.032 34.869,305.879 35.021 C 305.684 35.216,303.911 34.528,303.667 34.162 C 303.531 33.959,301.366 33.340,300.391 33.226 C 299.896 33.167,299.451 33.055,299.402 32.977 C 299.275 32.770,294.333 32.793,294.333 33.000 C 294.333 33.092,294.162 33.167,293.952 33.167 C 291.723 33.167,287.353 35.782,286.179 37.820 C 286.035 38.070,285.713 38.608,285.465 39.016 C 285.216 39.424,284.895 40.244,284.751 40.837 C 284.607 41.431,284.405 42.066,284.302 42.248 C 283.766 43.195,283.767 61.950,284.302 62.128 C 284.411 62.165,284.502 62.357,284.504 62.556 C 284.523 64.307,287.306 67.996,289.500 69.179 C 289.912 69.401,290.344 69.672,290.458 69.780 C 290.666 69.975,291.885 70.363,293.000 70.588 C 293.321 70.652,293.670 70.775,293.775 70.859 C 294.430 71.385,302.562 71.376,303.243 70.848 C 303.339 70.775,303.904 70.626,304.500 70.517 C 306.225 70.203,307.708 69.832,308.275 69.573 C 308.564 69.441,308.881 69.333,308.979 69.333 C 309.438 69.333,310.653 68.569,310.935 68.103 C 311.303 67.496,311.527 21.147,311.168 19.862 C 310.793 18.516,308.652 17.780,307.250 18.514 M25.083 20.423 C 24.667 20.623,24.653 20.646,25.000 20.562 C 25.472 20.446,26.003 20.176,25.750 20.179 C 25.658 20.181,25.358 20.290,25.083 20.423 M133.622 20.397 C 130.461 21.378,130.485 26.860,133.654 27.810 C 135.762 28.442,138.829 27.284,138.834 25.854 C 138.835 25.705,138.947 25.369,139.084 25.106 C 139.355 24.586,139.416 23.661,139.195 23.408 C 139.119 23.321,138.962 22.919,138.847 22.514 C 138.315 20.649,135.927 19.681,133.622 20.397 M9.667 29.917 C 8.984 30.604,8.463 31.167,8.508 31.167 C 8.554 31.167,9.150 30.604,9.833 29.917 C 10.516 29.229,11.037 28.667,10.992 28.667 C 10.946 28.667,10.350 29.229,9.667 29.917 M234.500 32.409 C 234.362 32.443,233.706 32.559,233.042 32.667 C 232.377 32.775,231.833 32.932,231.833 33.015 C 231.833 33.098,231.740 33.167,231.625 33.168 C 231.308 33.171,229.742 33.931,229.340 34.277 C 228.124 35.326,227.205 36.362,226.920 37.007 C 226.740 37.416,226.526 37.797,226.444 37.855 C 225.762 38.336,225.222 67.041,225.852 69.310 C 226.077 70.121,226.755 70.665,227.542 70.666 C 227.794 70.666,228.000 70.742,228.000 70.833 C 228.000 70.925,228.112 71.000,228.250 71.000 C 228.387 71.000,228.500 70.925,228.500 70.833 C 228.500 70.742,228.706 70.664,228.958 70.661 C 229.536 70.655,230.265 70.023,230.633 69.209 C 230.891 68.641,230.924 67.300,231.000 54.619 C 231.054 45.596,231.142 40.612,231.250 40.536 C 231.342 40.470,231.604 40.055,231.833 39.612 C 232.176 38.951,232.414 38.730,233.167 38.376 C 233.671 38.139,234.125 37.882,234.176 37.807 C 234.483 37.349,238.667 37.395,238.667 37.856 C 238.667 37.935,239.267 38.000,240.000 38.000 C 240.733 38.000,241.333 37.932,241.333 37.850 C 241.333 37.767,241.561 37.620,241.839 37.523 C 243.397 36.980,243.135 34.083,241.453 33.261 C 240.231 32.662,235.726 32.111,234.500 32.409 M257.645 32.587 C 256.762 32.707,255.899 32.884,255.728 32.979 C 255.557 33.074,254.704 33.350,253.834 33.591 C 252.964 33.832,252.214 34.084,252.167 34.150 C 252.121 34.217,251.624 34.441,251.063 34.648 C 247.300 36.037,248.110 40.434,251.996 39.714 C 252.958 39.536,254.019 39.170,254.174 38.962 C 254.284 38.815,256.100 38.226,256.912 38.073 C 257.235 38.013,257.500 37.903,257.500 37.830 C 257.500 37.564,259.926 37.294,261.671 37.366 C 263.476 37.441,263.460 37.436,265.269 38.406 C 266.142 38.874,267.660 40.905,267.665 41.611 C 267.666 41.718,267.740 41.831,267.830 41.861 C 268.298 42.020,268.567 47.440,268.125 47.791 C 268.005 47.886,265.936 47.995,263.255 48.047 C 260.130 48.109,258.573 48.198,258.532 48.319 C 258.499 48.419,258.219 48.500,257.909 48.500 C 257.599 48.500,256.574 48.657,255.631 48.848 C 253.240 49.334,253.167 49.354,253.167 49.519 C 253.167 49.600,253.073 49.668,252.958 49.671 C 252.611 49.677,250.918 50.419,250.573 50.715 C 249.402 51.721,248.167 52.928,248.167 53.066 C 248.167 53.155,248.021 53.383,247.844 53.573 C 246.670 54.825,245.905 60.314,246.583 62.624 C 247.074 64.295,247.537 65.504,247.734 65.629 C 247.839 65.696,248.062 65.975,248.230 66.250 C 248.610 66.871,250.006 68.167,250.296 68.167 C 250.414 68.167,250.552 68.274,250.602 68.405 C 250.652 68.535,251.268 68.850,251.972 69.104 C 252.675 69.357,253.287 69.613,253.333 69.672 C 253.506 69.894,257.080 70.667,257.935 70.667 C 258.246 70.667,258.500 70.742,258.500 70.833 C 258.500 70.937,259.472 71.000,261.083 71.000 C 262.504 71.000,263.667 70.936,263.667 70.857 C 263.667 70.779,264.173 70.668,264.792 70.611 C 266.355 70.467,269.667 69.807,269.667 69.639 C 269.667 69.562,269.760 69.500,269.875 69.501 C 271.314 69.506,273.500 68.174,273.500 67.291 C 273.500 67.142,273.575 66.973,273.667 66.917 C 273.875 66.788,273.899 42.060,273.691 41.932 C 273.613 41.883,273.503 41.410,273.447 40.880 C 273.329 39.768,272.886 38.326,272.587 38.083 C 272.474 37.991,272.334 37.766,272.276 37.583 C 272.079 36.968,270.380 35.333,269.417 34.831 C 269.142 34.688,268.579 34.376,268.167 34.138 C 267.754 33.899,267.004 33.577,266.500 33.421 C 265.996 33.265,265.358 33.038,265.083 32.917 C 263.839 32.369,260.370 32.215,257.645 32.587 M133.516 32.711 C 133.296 32.824,132.958 33.128,132.766 33.387 L 132.417 33.858 132.417 51.758 L 132.417 69.659 132.876 70.118 C 134.056 71.299,136.684 70.733,137.292 69.167 C 137.610 68.347,137.753 36.412,137.446 34.613 C 137.153 32.892,135.098 31.898,133.516 32.711 M158.083 32.684 C 157.533 32.763,156.933 32.901,156.750 32.992 C 156.567 33.083,155.929 33.318,155.333 33.514 C 154.737 33.710,154.175 33.964,154.083 34.078 C 153.991 34.192,153.593 34.449,153.200 34.650 C 152.806 34.851,152.443 35.121,152.393 35.251 C 152.343 35.381,152.157 35.533,151.980 35.590 C 151.803 35.646,151.284 36.155,150.826 36.721 C 150.369 37.287,149.896 37.862,149.775 38.000 C 149.400 38.428,148.364 40.875,148.188 41.750 C 147.543 44.954,147.938 62.549,148.669 63.167 C 148.723 63.212,148.899 63.601,149.060 64.031 C 149.542 65.315,151.301 67.492,152.375 68.132 C 152.627 68.282,152.833 68.458,152.833 68.523 C 152.833 68.588,153.265 68.853,153.792 69.112 C 154.319 69.371,154.788 69.634,154.835 69.696 C 154.980 69.886,157.485 70.489,158.606 70.604 C 159.189 70.664,159.667 70.777,159.667 70.856 C 159.667 70.935,160.342 71.000,161.167 71.000 C 162.056 71.000,162.667 70.932,162.667 70.833 C 162.667 70.742,162.925 70.667,163.242 70.667 C 164.233 70.667,167.106 69.971,167.333 69.676 C 167.379 69.617,167.903 69.360,168.498 69.105 C 169.092 68.850,169.632 68.556,169.697 68.451 C 169.997 67.966,170.083 68.789,170.083 72.126 C 170.083 74.855,170.033 75.739,169.875 75.792 C 169.760 75.830,169.667 75.972,169.667 76.108 C 169.667 78.093,166.099 81.333,163.913 81.333 C 163.686 81.333,163.500 81.408,163.500 81.500 C 163.500 81.688,160.126 81.737,159.940 81.551 C 159.877 81.488,159.658 81.413,159.454 81.386 C 156.903 81.042,155.457 80.691,154.309 80.135 C 152.662 79.338,150.767 79.559,150.261 80.607 C 150.091 80.961,149.887 81.380,149.809 81.539 C 149.615 81.934,149.629 82.500,149.833 82.500 C 149.925 82.500,150.000 82.631,150.001 82.792 C 150.002 83.277,150.939 84.119,151.871 84.473 C 152.354 84.657,152.975 84.921,153.250 85.061 C 155.143 86.023,162.747 86.555,165.667 85.929 C 166.849 85.675,168.368 85.189,168.500 85.022 C 168.546 84.964,168.996 84.697,169.500 84.429 C 170.004 84.160,170.515 83.804,170.634 83.637 C 170.754 83.470,170.957 83.333,171.084 83.333 C 171.212 83.333,171.526 83.052,171.782 82.708 C 172.038 82.365,172.342 82.023,172.457 81.950 C 172.572 81.877,172.777 81.603,172.913 81.341 C 173.048 81.079,173.261 80.763,173.386 80.638 C 173.653 80.371,174.500 78.312,174.500 77.930 C 174.500 77.785,174.565 77.667,174.644 77.667 C 175.189 77.667,175.244 75.925,175.298 56.833 C 175.354 37.253,175.334 36.334,174.849 35.849 C 174.689 35.689,174.514 35.444,174.461 35.305 C 174.408 35.166,174.076 34.920,173.724 34.758 C 173.371 34.596,172.860 34.356,172.586 34.225 C 172.070 33.978,168.678 33.167,168.158 33.167 C 167.995 33.167,167.836 33.100,167.806 33.018 C 167.646 32.592,160.451 32.345,158.083 32.684 M386.542 32.784 C 385.969 32.820,385.500 32.921,385.500 33.008 C 385.500 33.095,385.293 33.167,385.040 33.167 C 384.484 33.167,381.653 33.929,381.515 34.117 C 381.461 34.190,381.042 34.436,380.583 34.663 C 380.125 34.891,379.563 35.271,379.333 35.509 C 379.104 35.746,378.804 36.010,378.667 36.095 C 377.981 36.520,376.950 38.392,376.655 39.750 C 376.535 40.300,376.368 40.797,376.284 40.854 C 376.041 41.020,376.053 45.212,376.298 45.294 C 376.409 45.331,376.500 45.506,376.500 45.684 C 376.500 46.124,377.214 47.848,377.601 48.345 C 378.220 49.139,379.861 50.667,380.095 50.667 C 380.226 50.667,380.333 50.738,380.333 50.825 C 380.333 50.986,381.895 51.833,382.192 51.833 C 382.283 51.833,382.463 51.939,382.592 52.069 C 382.722 52.198,383.354 52.467,383.997 52.666 C 384.640 52.865,385.167 53.078,385.167 53.139 C 385.167 53.200,385.743 53.438,386.447 53.667 C 387.150 53.896,387.806 54.162,387.904 54.258 C 388.003 54.354,388.520 54.608,389.054 54.824 C 389.588 55.039,390.113 55.302,390.221 55.408 C 390.329 55.514,390.773 55.772,391.208 55.982 C 391.644 56.192,392.056 56.454,392.125 56.565 C 392.194 56.676,392.494 56.937,392.792 57.145 C 393.090 57.353,393.333 57.589,393.333 57.671 C 393.333 57.752,393.572 58.216,393.864 58.701 C 394.580 59.891,394.607 61.031,393.948 62.334 C 393.188 63.840,393.051 64.034,392.514 64.374 C 392.231 64.553,392.000 64.766,392.000 64.847 C 392.000 65.010,391.346 65.310,389.616 65.941 C 387.817 66.598,381.685 65.883,380.465 64.874 C 379.532 64.102,377.027 64.296,376.666 65.168 C 376.553 65.442,376.394 65.667,376.313 65.667 C 376.132 65.667,376.117 67.784,376.298 67.861 C 376.370 67.892,376.590 68.147,376.787 68.428 C 377.038 68.786,377.436 69.035,378.115 69.261 C 378.647 69.438,379.166 69.661,379.268 69.756 C 379.369 69.851,380.232 70.108,381.185 70.328 C 382.137 70.547,382.997 70.786,383.096 70.859 C 383.757 71.350,390.809 71.350,391.163 70.860 C 391.211 70.794,391.662 70.637,392.167 70.512 C 393.189 70.258,394.135 69.859,394.474 69.538 C 394.597 69.421,394.928 69.207,395.208 69.062 C 395.665 68.826,396.527 68.015,397.643 66.770 C 398.079 66.284,398.667 65.208,398.667 64.895 C 398.667 64.785,398.744 64.669,398.839 64.637 C 399.884 64.289,399.749 57.520,398.666 55.999 C 398.483 55.742,398.333 55.445,398.333 55.339 C 398.333 55.063,395.573 52.333,395.295 52.333 C 395.167 52.333,394.917 52.199,394.740 52.035 C 394.562 51.871,393.910 51.522,393.292 51.260 C 392.673 50.998,392.167 50.728,392.167 50.660 C 392.167 50.592,391.960 50.485,391.708 50.422 C 391.456 50.360,390.563 49.982,389.724 49.582 C 388.885 49.183,387.891 48.764,387.516 48.652 C 387.140 48.539,386.833 48.391,386.833 48.322 C 386.833 48.252,386.291 47.989,385.628 47.735 C 384.966 47.482,384.276 47.138,384.097 46.971 C 383.917 46.804,383.690 46.667,383.592 46.667 C 383.425 46.667,383.109 46.387,382.224 45.460 C 379.889 43.011,382.710 38.000,386.424 38.000 C 386.649 38.000,386.833 37.925,386.833 37.833 C 386.833 37.628,389.110 37.607,389.236 37.811 C 389.286 37.891,389.721 38.008,390.205 38.071 C 391.325 38.217,393.721 38.822,393.832 38.987 C 394.111 39.401,396.666 39.645,397.370 39.324 C 399.462 38.371,398.619 34.500,396.320 34.500 C 396.225 34.500,395.826 34.353,395.431 34.173 C 394.696 33.839,391.892 33.167,391.230 33.167 C 391.027 33.167,390.836 33.101,390.806 33.021 C 390.739 32.845,387.995 32.693,386.542 32.784 M323.646 33.481 L 322.917 34.129 322.917 52.045 L 322.917 69.962 323.574 70.564 C 324.861 71.743,327.412 71.212,327.774 69.690 C 327.832 69.448,327.963 69.145,328.065 69.016 C 328.326 68.686,328.329 35.206,328.067 35.036 C 327.967 34.970,327.830 34.692,327.763 34.417 C 327.626 33.853,327.054 33.167,326.721 33.167 C 326.599 33.167,326.500 33.092,326.500 33.000 C 326.500 32.475,324.376 32.833,323.646 33.481 M340.667 32.980 C 340.667 33.060,340.452 33.215,340.189 33.324 C 339.213 33.728,339.248 33.180,339.277 47.881 C 339.303 61.108,339.391 63.500,339.852 63.500 C 339.933 63.500,340.000 63.603,340.000 63.729 C 340.000 64.111,340.817 65.833,340.998 65.833 C 341.091 65.833,341.167 65.941,341.167 66.072 C 341.167 66.512,343.985 69.167,344.453 69.167 C 344.570 69.167,344.803 69.303,344.969 69.469 C 345.263 69.763,346.982 70.369,348.167 70.596 C 348.488 70.658,348.788 70.768,348.835 70.841 C 349.208 71.423,358.333 71.393,358.333 70.809 C 358.333 70.731,358.486 70.667,358.673 70.667 C 359.187 70.667,362.905 69.811,363.000 69.670 C 363.046 69.603,363.483 69.446,363.972 69.322 C 365.010 69.059,365.946 68.269,366.178 67.460 C 366.345 66.878,366.398 34.840,366.233 34.226 C 365.908 33.017,363.622 32.436,362.349 33.240 C 361.121 34.015,361.167 33.380,361.167 49.696 C 361.167 58.059,361.104 64.167,361.018 64.167 C 360.936 64.167,360.823 64.352,360.766 64.579 C 360.622 65.151,360.369 65.250,358.000 65.662 C 356.854 65.861,355.825 66.042,355.713 66.063 C 355.601 66.084,355.457 66.154,355.394 66.217 C 355.237 66.374,351.421 66.366,351.264 66.208 C 351.195 66.140,351.089 66.080,351.028 66.076 C 350.223 66.023,347.667 65.104,347.666 64.867 C 347.666 64.803,347.437 64.600,347.157 64.417 C 346.545 64.016,345.582 62.724,345.258 61.870 C 344.706 60.416,344.667 59.460,344.667 47.492 C 344.667 39.608,344.610 35.500,344.500 35.500 C 344.408 35.500,344.333 35.359,344.333 35.187 C 344.333 34.582,343.814 33.640,343.327 33.363 C 343.057 33.209,342.835 33.027,342.834 32.958 C 342.834 32.890,342.346 32.833,341.750 32.833 C 341.154 32.833,340.667 32.899,340.667 32.980 M6.406 33.612 C 6.150 33.948,6.025 34.171,6.129 34.107 C 6.342 33.975,7.064 33.000,6.948 33.000 C 6.907 33.000,6.663 33.275,6.406 33.612 M5.000 35.500 C 4.804 35.775,4.681 36.000,4.727 36.000 C 4.773 36.000,4.971 35.775,5.167 35.500 C 5.362 35.225,5.485 35.000,5.439 35.000 C 5.394 35.000,5.196 35.225,5.000 35.500 M164.593 37.527 C 165.459 37.633,166.167 37.771,166.167 37.833 C 166.167 37.895,166.819 38.048,167.617 38.172 C 168.769 38.351,169.171 38.491,169.575 38.852 L 170.083 39.306 170.113 50.528 C 170.146 63.088,170.211 62.372,168.936 63.402 C 167.014 64.955,163.753 65.937,161.013 65.789 C 159.512 65.708,157.169 65.147,157.165 64.868 C 157.164 64.803,156.834 64.605,156.431 64.428 C 154.958 63.781,153.508 61.486,153.502 59.792 C 153.501 59.540,153.425 59.333,153.333 59.333 C 153.225 59.333,153.167 56.750,153.167 51.917 C 153.167 47.837,153.231 44.500,153.310 44.500 C 153.389 44.500,153.502 44.089,153.561 43.587 C 153.681 42.569,154.166 41.216,154.619 40.637 C 155.673 39.289,157.452 38.000,158.257 38.000 C 158.376 38.000,158.497 37.927,158.528 37.838 C 158.679 37.395,162.094 37.220,164.593 37.527 M299.000 37.812 C 299.000 37.892,299.394 38.008,299.875 38.071 C 301.799 38.322,304.865 39.644,305.077 40.314 C 305.129 40.476,305.316 40.765,305.495 40.956 C 306.066 41.569,306.167 43.533,306.167 54.016 C 306.167 64.754,306.156 64.949,305.559 65.176 C 305.208 65.309,301.673 65.960,300.708 66.069 C 300.502 66.093,300.283 66.162,300.222 66.222 C 300.069 66.376,296.418 66.363,296.264 66.208 C 296.195 66.140,296.089 66.079,296.028 66.074 C 294.220 65.921,292.384 64.985,291.172 63.600 C 290.940 63.335,290.623 62.983,290.468 62.819 C 290.313 62.654,290.070 62.177,289.928 61.757 C 288.879 58.669,289.176 42.465,290.296 41.679 C 290.370 41.626,290.641 41.246,290.899 40.833 C 291.156 40.421,291.627 39.896,291.945 39.667 C 292.264 39.438,292.659 39.115,292.823 38.951 C 293.163 38.611,294.669 38.000,295.168 38.000 C 295.351 38.000,295.500 37.925,295.500 37.833 C 295.500 37.733,296.194 37.667,297.250 37.667 C 298.212 37.667,299.000 37.732,299.000 37.812 M2.750 39.167 C 2.608 39.442,2.529 39.667,2.575 39.667 C 2.621 39.667,2.774 39.442,2.917 39.167 C 3.059 38.892,3.138 38.667,3.092 38.667 C 3.046 38.667,2.892 38.892,2.750 39.167 M268.101 53.292 C 268.274 53.520,268.324 54.741,268.328 58.888 L 268.333 64.192 267.875 64.648 C 266.285 66.229,256.536 66.176,254.439 64.575 C 254.025 64.259,253.607 64.000,253.510 64.000 C 253.413 64.000,253.333 63.906,253.333 63.792 C 253.332 63.677,253.114 63.351,252.848 63.067 C 251.360 61.480,251.351 57.763,252.832 56.142 C 253.108 55.840,253.333 55.547,253.333 55.491 C 253.333 54.846,256.411 53.534,258.255 53.393 C 259.037 53.333,259.717 53.220,259.765 53.142 C 259.958 52.831,267.859 52.973,268.101 53.292 M33.993 68.375 C 34.402 68.810,34.758 69.167,34.785 69.167 C 34.910 69.167,34.778 69.017,34.042 68.326 L 33.250 67.583 33.993 68.375 M59.750 79.584 C 60.132 79.716,61.831 79.768,61.632 79.642 C 61.514 79.567,61.004 79.510,60.500 79.516 C 59.996 79.522,59.658 79.552,59.750 79.584 " stroke="none" fill="#8c8c8c" fill-rule="evenodd"></path><path id="path1" d="M36.588 0.776 C 35.491 0.908,34.554 1.077,34.505 1.151 C 34.456 1.226,34.042 1.340,33.583 1.405 C 32.422 1.568,29.936 2.171,29.834 2.313 C 29.788 2.378,29.019 2.645,28.125 2.906 C 27.231 3.166,26.500 3.434,26.500 3.501 C 26.500 3.568,25.942 3.826,25.259 4.074 C 24.577 4.323,23.996 4.577,23.968 4.638 C 23.940 4.700,23.504 4.934,23.000 5.158 C 22.496 5.382,22.008 5.647,21.917 5.747 C 21.825 5.846,21.319 6.144,20.792 6.408 C 20.265 6.672,19.833 6.937,19.833 6.997 C 19.833 7.056,19.517 7.283,19.130 7.501 C 18.300 7.967,16.012 9.667,15.686 10.059 C 15.561 10.210,15.396 10.333,15.318 10.333 C 15.203 10.333,13.571 11.815,12.709 12.703 C 11.547 13.899,10.333 15.217,10.333 15.283 C 10.333 15.327,9.921 15.861,9.417 16.468 C 8.912 17.076,8.500 17.661,8.500 17.768 C 8.500 17.876,8.404 18.001,8.286 18.046 C 8.081 18.125,7.233 19.436,6.377 21.000 C 6.151 21.412,5.907 21.787,5.835 21.833 C 5.763 21.879,5.500 22.404,5.250 23.000 C 5.000 23.596,4.732 24.124,4.654 24.173 C 4.576 24.222,4.315 24.784,4.075 25.422 C 3.836 26.059,3.584 26.619,3.517 26.665 C 3.449 26.712,3.184 27.500,2.927 28.417 C 2.670 29.333,2.398 30.123,2.322 30.171 C 2.247 30.219,2.026 31.081,1.832 32.087 C 1.638 33.094,1.404 34.254,1.312 34.667 C 0.916 36.444,0.842 37.052,0.731 39.474 C 0.576 42.843,0.723 42.970,1.958 40.540 C 2.893 38.700,4.082 36.667,4.807 35.667 C 6.271 33.648,6.668 33.132,7.558 32.083 C 9.220 30.125,12.373 27.193,14.104 25.995 C 14.299 25.860,14.929 25.421,15.504 25.019 C 19.159 22.462,27.325 19.062,29.000 19.398 C 29.229 19.444,30.317 19.365,31.417 19.224 C 35.289 18.725,45.026 19.283,45.306 20.020 C 45.336 20.101,45.472 20.167,45.608 20.167 C 45.930 20.167,48.867 21.005,49.083 21.159 C 49.175 21.224,49.887 21.526,50.667 21.830 C 51.446 22.134,52.122 22.441,52.169 22.512 C 52.216 22.584,52.741 22.851,53.336 23.107 C 53.930 23.363,54.518 23.671,54.642 23.791 C 54.765 23.911,55.106 24.109,55.398 24.232 C 55.691 24.354,56.039 24.558,56.173 24.685 C 56.307 24.813,56.751 25.135,57.159 25.400 C 57.568 25.666,58.092 26.060,58.324 26.275 C 58.557 26.490,58.837 26.667,58.947 26.667 C 59.058 26.667,59.246 26.798,59.366 26.958 C 59.485 27.119,59.881 27.472,60.244 27.744 C 60.805 28.164,61.780 29.120,65.010 32.417 C 65.280 32.692,65.500 33.010,65.500 33.124 C 65.500 33.237,65.653 33.425,65.840 33.540 C 66.027 33.656,66.368 34.069,66.597 34.458 C 66.827 34.848,67.086 35.167,67.174 35.167 C 67.261 35.167,67.333 35.247,67.333 35.344 C 67.333 35.442,67.521 35.768,67.750 36.069 C 67.979 36.369,68.168 36.683,68.169 36.766 C 68.170 36.849,68.460 37.228,68.814 37.609 C 73.265 42.400,76.351 57.683,74.715 66.833 C 74.527 67.887,74.384 68.764,74.397 68.780 C 74.480 68.883,76.833 66.416,76.833 66.225 C 76.833 66.181,77.021 65.899,77.250 65.598 C 77.479 65.298,77.667 64.965,77.667 64.859 C 77.667 64.753,77.740 64.667,77.831 64.667 C 77.921 64.667,78.191 64.278,78.432 63.804 C 78.672 63.329,78.965 62.844,79.082 62.727 C 79.200 62.610,79.468 62.098,79.679 61.590 C 79.889 61.082,80.111 60.667,80.171 60.667 C 80.231 60.667,80.496 60.123,80.760 59.458 C 81.024 58.794,81.287 58.212,81.345 58.167 C 81.468 58.069,82.046 56.415,82.334 55.333 C 82.444 54.921,82.590 54.546,82.657 54.500 C 82.795 54.406,83.417 51.823,83.590 50.625 C 83.653 50.190,83.761 49.833,83.830 49.833 C 84.119 49.833,84.417 45.900,84.417 42.083 C 84.417 38.280,84.119 34.333,83.833 34.333 C 83.765 34.333,83.659 33.940,83.596 33.458 C 83.448 32.314,82.838 29.775,82.685 29.668 C 82.619 29.621,82.396 28.983,82.188 28.250 C 81.981 27.517,81.657 26.579,81.468 26.167 C 80.520 24.096,79.152 21.355,79.042 21.306 C 78.973 21.275,78.708 20.819,78.453 20.292 C 78.198 19.765,77.929 19.333,77.855 19.333 C 77.781 19.333,77.635 19.146,77.531 18.917 C 77.426 18.688,76.870 17.898,76.295 17.162 C 75.720 16.425,75.100 15.617,74.917 15.366 C 74.479 14.765,69.875 10.167,69.710 10.166 C 69.640 10.165,69.358 9.958,69.083 9.705 C 68.439 9.113,66.385 7.636,65.792 7.340 C 65.540 7.214,65.333 7.054,65.333 6.985 C 65.333 6.915,64.902 6.647,64.375 6.388 C 63.848 6.129,63.342 5.830,63.250 5.723 C 63.158 5.617,62.671 5.358,62.167 5.147 C 61.663 4.936,61.161 4.676,61.052 4.570 C 60.942 4.464,60.361 4.203,59.760 3.991 C 59.159 3.779,58.667 3.554,58.667 3.492 C 58.667 3.431,57.935 3.166,57.042 2.906 C 56.148 2.645,55.379 2.380,55.333 2.317 C 55.238 2.185,53.583 1.771,52.000 1.483 C 51.404 1.374,50.835 1.222,50.734 1.144 C 49.984 0.561,40.443 0.313,36.588 0.776 M324.167 20.270 C 323.212 20.642,322.500 21.064,322.500 21.259 C 322.500 21.385,322.356 21.565,322.180 21.660 C 321.732 21.899,321.450 22.878,321.458 24.160 C 321.486 28.586,327.325 29.626,329.188 25.536 C 329.569 24.700,329.574 22.830,329.195 22.704 C 329.088 22.668,329.000 22.532,329.000 22.400 C 329.000 21.040,325.806 19.632,324.167 20.270 " stroke="none" fill="#fb7404" fill-rule="evenodd"></path><path id="path2" d="M27.750 19.754 C 24.308 20.512,19.665 22.535,16.181 24.792 C 9.948 28.831,5.475 33.961,1.777 41.313 C 1.333 42.195,0.902 42.942,0.818 42.972 C 0.473 43.099,0.828 50.170,1.186 50.306 C 1.267 50.336,1.333 50.514,1.333 50.701 C 1.333 51.249,2.172 55.232,2.307 55.329 C 2.376 55.377,2.645 56.148,2.906 57.042 C 3.166 57.935,3.444 58.667,3.523 58.667 C 3.602 58.667,3.667 58.777,3.667 58.911 C 3.667 59.304,5.577 63.426,5.809 63.533 C 5.868 63.561,6.129 64.015,6.388 64.542 C 6.647 65.069,6.919 65.500,6.994 65.500 C 7.068 65.500,7.245 65.744,7.387 66.042 C 7.638 66.568,8.724 68.139,9.217 68.689 C 9.352 68.839,9.639 69.210,9.856 69.513 C 10.073 69.817,10.644 70.471,11.125 70.968 C 11.606 71.464,12.000 71.929,12.000 72.002 C 12.000 72.074,12.462 72.534,13.027 73.025 C 13.592 73.515,14.281 74.160,14.558 74.458 C 14.835 74.756,15.159 75.000,15.279 75.000 C 15.399 75.000,15.591 75.151,15.707 75.335 C 15.822 75.520,16.235 75.872,16.625 76.119 C 17.014 76.365,17.333 76.619,17.333 76.684 C 17.333 76.749,17.690 77.009,18.125 77.261 C 18.560 77.514,18.955 77.778,19.002 77.848 C 19.135 78.046,20.966 79.108,22.167 79.684 C 22.762 79.970,23.275 80.270,23.306 80.352 C 23.336 80.433,23.431 80.500,23.517 80.500 C 23.603 80.500,24.308 80.800,25.084 81.167 C 25.859 81.534,27.001 81.998,27.622 82.199 C 28.242 82.400,28.787 82.611,28.833 82.668 C 28.947 82.808,32.492 83.667,32.958 83.667 C 33.165 83.667,33.333 83.727,33.333 83.801 C 33.333 83.973,35.205 84.278,37.750 84.520 C 41.467 84.875,49.580 84.462,50.917 83.850 C 51.100 83.767,52.131 83.498,53.208 83.253 C 54.285 83.008,55.167 82.739,55.167 82.654 C 55.167 82.569,55.261 82.500,55.377 82.500 C 55.707 82.500,58.224 81.675,58.326 81.533 C 58.376 81.464,58.960 81.191,59.625 80.927 C 60.290 80.663,60.833 80.390,60.833 80.321 C 60.833 80.251,61.040 80.122,61.292 80.033 C 61.917 79.814,61.648 79.744,59.250 79.505 C 49.314 78.512,40.326 74.471,33.558 67.952 C 32.620 67.049,31.884 66.221,31.922 66.113 C 31.960 66.005,31.543 65.429,30.996 64.833 C 30.449 64.237,30.001 63.684,30.001 63.603 C 30.000 63.522,29.865 63.334,29.700 63.186 C 29.535 63.038,29.227 62.633,29.017 62.287 C 28.806 61.941,28.528 61.552,28.399 61.422 C 28.269 61.293,27.972 60.807,27.739 60.343 C 27.506 59.880,27.259 59.500,27.189 59.500 C 27.119 59.500,26.889 59.084,26.679 58.576 C 26.468 58.068,26.209 57.562,26.103 57.451 C 25.997 57.341,25.689 56.688,25.418 56.000 C 25.148 55.313,24.875 54.712,24.812 54.666 C 24.748 54.620,24.486 53.870,24.229 52.999 C 23.972 52.129,23.719 51.379,23.667 51.333 C 23.461 51.151,22.667 47.110,22.667 46.242 C 22.667 46.033,22.573 45.830,22.458 45.792 C 22.298 45.738,22.250 44.646,22.250 41.083 C 22.250 37.520,22.298 36.428,22.458 36.375 C 22.573 36.337,22.668 36.068,22.671 35.778 C 22.676 35.040,23.463 31.128,23.629 31.012 C 23.705 30.960,23.950 30.248,24.175 29.430 C 24.399 28.613,24.664 27.863,24.762 27.764 C 24.860 27.664,24.986 27.433,25.042 27.250 C 25.397 26.096,26.812 23.140,27.156 22.833 C 27.208 22.787,27.331 22.600,27.429 22.417 C 27.975 21.399,28.287 20.906,28.607 20.552 C 29.028 20.086,29.221 19.493,28.943 19.517 C 28.837 19.526,28.300 19.633,27.750 19.754 " stroke="none" fill="#5cabe3" fill-rule="evenodd"></path><path id="path3" d="M68.832 38.047 C 68.832 38.159,68.727 38.449,68.601 38.692 C 68.474 38.935,68.276 39.423,68.161 39.776 C 68.047 40.128,67.626 41.115,67.226 41.968 C 66.827 42.822,66.500 43.576,66.500 43.645 C 66.500 43.714,66.357 43.923,66.183 44.110 C 66.009 44.297,65.666 44.874,65.421 45.392 C 65.176 45.910,64.920 46.333,64.852 46.333 C 64.784 46.333,64.606 46.589,64.457 46.902 C 64.308 47.215,63.844 47.920,63.426 48.470 C 63.008 49.019,62.667 49.521,62.667 49.585 C 62.667 49.650,62.479 49.850,62.250 50.030 C 62.021 50.210,61.833 50.442,61.833 50.545 C 61.833 50.647,61.603 50.961,61.321 51.241 C 61.040 51.521,60.158 52.425,59.363 53.250 C 58.567 54.075,57.429 55.163,56.833 55.667 C 56.237 56.171,55.712 56.622,55.667 56.669 C 55.373 56.971,53.032 58.667,52.905 58.670 C 52.820 58.671,52.573 58.859,52.358 59.086 C 52.142 59.314,51.892 59.500,51.802 59.500 C 51.713 59.500,51.252 59.756,50.778 60.070 C 50.304 60.383,49.598 60.766,49.208 60.921 C 48.819 61.076,48.500 61.262,48.500 61.334 C 48.500 61.406,47.994 61.667,47.375 61.915 C 46.756 62.163,46.212 62.422,46.167 62.491 C 46.121 62.560,45.446 62.827,44.667 63.083 C 43.887 63.340,43.210 63.611,43.161 63.685 C 43.083 63.803,42.061 64.092,38.167 65.095 C 37.040 65.385,33.748 65.833,32.741 65.833 C 31.682 65.833,31.772 66.123,33.292 67.611 C 40.333 74.500,49.878 78.725,60.133 79.490 C 62.155 79.641,62.592 79.572,63.202 79.002 C 63.401 78.818,63.637 78.667,63.728 78.667 C 63.978 78.667,66.718 76.803,66.968 76.463 C 67.088 76.300,67.263 76.167,67.358 76.167 C 67.816 76.167,72.601 71.697,73.849 70.104 C 74.055 69.840,74.436 69.392,74.696 69.108 C 74.955 68.825,75.167 68.499,75.167 68.385 C 75.167 68.272,75.323 68.095,75.514 67.992 C 75.705 67.890,75.811 67.756,75.749 67.695 C 75.687 67.634,75.385 67.882,75.078 68.246 C 74.394 69.059,74.283 68.978,74.501 67.827 C 75.958 60.146,75.040 51.118,72.055 43.757 C 70.720 40.466,68.837 37.129,68.832 38.047 " stroke="none" fill="#84cb14" fill-rule="evenodd"></path><path id="path4" d="M11.491 28.125 L 10.917 28.750 11.542 28.176 C 11.885 27.860,12.167 27.578,12.167 27.551 C 12.167 27.423,12.026 27.543,11.491 28.125 M9.658 29.792 L 9.083 30.417 9.708 29.842 C 10.052 29.526,10.333 29.245,10.333 29.217 C 10.333 29.090,10.192 29.210,9.658 29.792 M7.824 31.792 L 7.250 32.417 7.875 31.842 C 8.219 31.526,8.500 31.245,8.500 31.217 C 8.500 31.090,8.359 31.210,7.824 31.792 M4.397 36.208 C 3.823 37.182,3.786 37.265,4.078 36.917 C 4.416 36.513,4.708 36.000,4.599 36.000 C 4.555 36.000,4.464 36.094,4.397 36.208 M1.742 40.849 C 1.595 41.132,1.505 41.394,1.541 41.430 C 1.577 41.466,1.732 41.234,1.884 40.915 C 2.227 40.196,2.108 40.141,1.742 40.849 M0.667 42.500 C 0.667 42.683,0.734 42.833,0.816 42.833 C 1.003 42.833,1.178 42.400,1.044 42.266 C 0.843 42.066,0.667 42.175,0.667 42.500 " stroke="none" fill="#c48c54" fill-rule="evenodd"></path></g></svg>